# xmcd
# Copyright (C) 1995-1998 Ti Kan
#
# Track frame offsets:
#       150
#       15665
#       31252
#       49630
#       59230
#       77380
#       95530
#       113080
#       134155
#       154930
#       177580
#       198455
#       214832
#       229747
#       243095
#       270120
#
# Disc length: 4440 seconds
#
# Revision: 2
# Processed by: cddbd v1.4PL0 Copyright (c) Steve Scherf et al.
# Submitted via: CD-Transfer v1.0
#
DISCID=d8115610
DTITLE=Bo Katzman Chor - Mystery Moon
DYEAR=02
DGENRE=
TTITLE0=Moonlight
TTITLE1=When The Night Has Gone
TTITLE2=Glory Day
TTITLE3=Working On The Building
TTITLE4=Atlantis
TTITLE5=Stand By Me
TTITLE6=Angel
TTITLE7=Lean On Me
TTITLE8=Tears In Heaven
TTITLE9=With A Little Help From My Friends
TTITLE10=Heaven
TTITLE11=You Are My Lord
TTITLE12=Give Peace A Chance
TTITLE13=The End
TTITLE14=Moonlight (Candlelight Version)
TTITLE15=Data Track
EXTD=
EXTT0=
EXTT1=
EXTT2=
EXTT3=
EXTT4=
EXTT5=
EXTT6=
EXTT7=
EXTT8=
EXTT9=
EXTT10=
EXTT11=
EXTT12=
EXTT13=
EXTT14=
EXTT15=
PLAYORDER=
